<?xml version="1.0" standalone="no"?>
<!DOCTYPE svg PUBLIC "-//W3C//DTD SVG 20010904//EN"
 "http://www.w3.org/TR/2001/REC-SVG-20010904/DTD/svg10.dtd">
<svg version="1.0" xmlns="http://www.w3.org/2000/svg"
 width="961.000000pt" height="641.000000pt" viewBox="0 0 961.000000 641.000000"
 preserveAspectRatio="xMidYMid meet">
<metadata>
Created by potrace 1.16, written by Peter Selinger 2001-2019
</metadata>
<g transform="translate(0.000000,641.000000) scale(0.100000,-0.100000)"
fill="#000000" stroke="none">
<path d="M1538 3774 c-30 -16 -58 -61 -58 -94 0 -34 28 -78 60 -95 34 -18 109
-20 143 -4 29 13 57 58 57 94 0 38 -26 83 -60 100 -37 19 -107 19 -142 -1z"/>
<path d="M633 3733 c-4 -10 -87 -234 -184 -498 l-177 -480 107 -8 c195 -13
173 -18 238 45 32 30 73 63 91 72 41 21 116 31 175 22 l46 -7 21 -64 21 -63
67 -5 c37 -3 83 -9 103 -12 23 -4 39 -3 43 4 4 6 16 11 27 11 10 0 19 2 19 5
0 28 -57 201 -125 380 -46 121 -100 261 -118 310 -19 50 -55 137 -79 195 l-45
105 -112 3 c-99 2 -112 1 -118 -15z"/>
<path d="M6990 3548 l0 -132 28 26 c15 14 39 33 53 42 24 15 26 22 22 59 -7
59 -22 95 -51 117 -49 39 -52 31 -52 -112z"/>
<path d="M8825 3608 c-3 -40 -5 -138 -3 -216 l3 -144 54 72 53 72 -4 101 c-4
113 -20 155 -63 175 -14 7 -28 12 -30 12 -2 0 -6 -33 -10 -72z"/>
<path d="M4450 3418 l0 -143 55 3 55 4 0 41 c0 82 69 140 145 121 32 -8 34 16
5 63 -24 40 -67 53 -177 53 l-83 0 0 -142z"/>
<path d="M4977 3520 c16 -69 9 -192 -14 -241 -28 -63 -93 -125 -161 -157 -51
-23 -72 -26 -204 -30 l-148 -4 0 -169 0 -169 -65 0 c-36 0 -65 -3 -65 -7 0 -5
9 -22 20 -40 26 -44 82 -61 132 -40 51 21 67 52 78 145 15 136 43 164 175 176
228 21 359 139 358 322 0 80 -28 154 -82 214 l-32 35 8 -35z"/>
<path d="M2223 3486 c-90 -29 -164 -95 -182 -163 -18 -65 -21 -63 93 -63 80 0
106 -3 116 -15 14 -17 60 -19 110 -5 39 11 70 5 70 -14 0 -9 -28 -15 -96 -20
-214 -15 -314 -92 -314 -245 0 -128 67 -195 237 -235 60 -15 80 -16 128 -6 36
8 90 9 149 5 77 -6 100 -4 129 10 45 21 47 34 46 254 0 172 -1 178 -33 275
-38 116 -74 164 -149 203 -45 23 -66 27 -157 30 -69 2 -119 -2 -147 -11z"/>
<path d="M1498 3085 l-3 -404 -23 -23 c-18 -18 -34 -23 -77 -23 l-55 0 0 -86
0 -86 31 -7 c17 -3 60 -6 95 -6 34 0 66 -4 69 -10 8 -13 66 -13 102 1 38 14
81 56 104 101 32 63 41 162 37 450 -3 260 -4 275 -25 316 -18 32 -23 59 -23
112 l0 70 -115 0 -114 0 -3 -405z"/>
<path d="M2930 3408 c15 -46 73 -215 129 -376 l100 -292 -18 -43 c-20 -47 -52
-67 -106 -67 l-35 0 0 -84 0 -84 36 -7 c20 -3 59 -5 88 -4 28 1 63 -2 78 -6
57 -15 118 22 163 100 51 86 255 672 255 731 0 18 -7 40 -16 48 -14 15 -14 23
10 91 l25 76 -126 -3 -125 -3 -47 -152 c-25 -83 -49 -154 -52 -157 -11 -11
-87 142 -113 227 l-27 87 -124 0 -124 0 29 -82z"/>
<path d="M6530 3382 l0 -52 -66 0 -66 0 4 -191 c3 -214 5 -219 77 -219 l36 0
-3 84 c-4 101 6 144 53 216 45 70 45 102 0 166 l-35 49 0 -53z"/>
<path d="M9121 3280 c-45 -49 -81 -92 -81 -95 0 -3 33 -56 73 -118 41 -61 104
-158 140 -214 l66 -102 -111 -3 -111 -3 27 -32 c53 -63 166 -80 201 -30 25 36
18 68 -35 157 -88 148 -113 206 -106 244 4 19 31 71 61 116 61 91 69 129 33
154 -47 33 -71 22 -157 -74z"/>
<path d="M7421 3302 c4 -26 8 -161 8 -299 l1 -253 -60 0 c-68 0 -75 -11 -37
-55 45 -52 129 -48 171 8 19 26 21 44 24 215 2 114 -1 213 -8 254 -12 70 -54
149 -88 167 -18 9 -18 7 -11 -37z"/>
<path d="M5485 3315 c-14 -13 -25 -31 -25 -40 0 -11 -10 -15 -35 -15 -34 0
-35 -2 -35 -36 0 -32 2 -36 23 -31 12 3 64 9 115 13 l92 7 0 43 c0 34 -5 47
-26 63 -36 28 -79 27 -109 -4z"/>
<path d="M7952 3330 c-14 -6 -25 -21 -28 -40 -6 -27 -10 -30 -45 -30 -34 0
-39 -3 -39 -22 0 -44 8 -46 129 -34 l113 10 -5 45 c-8 70 -57 98 -125 71z"/>
<path d="M5860 3109 c1 -207 4 -256 25 -331 l7 -28 -116 0 c-113 0 -116 1
-128 25 l-14 25 -37 -25 c-47 -33 -128 -48 -191 -36 l-48 9 29 -30 c48 -51
100 -72 173 -71 278 6 337 9 358 22 43 24 52 66 52 248 0 245 -19 331 -84 392
l-26 24 0 -224z"/>
<path d="M8318 3086 c3 -221 7 -269 27 -318 7 -17 -3 -18 -114 -18 -120 0
-121 0 -127 25 -3 14 -8 25 -10 25 -3 0 -21 -11 -42 -25 -49 -32 -121 -47
-185 -39 l-52 7 20 -23 c11 -12 40 -34 65 -48 48 -29 31 -28 315 -19 77 2 148
7 158 12 41 18 47 54 47 273 0 152 -4 222 -14 256 -16 51 -50 107 -75 123 -14
9 -16 -14 -13 -231z"/>
<path d="M7012 3304 c-22 -15 -22 -17 -22 -285 l0 -269 -59 0 -60 0 11 -30
c14 -42 44 -60 99 -60 37 0 52 5 72 26 32 32 35 49 40 249 5 185 17 229 68
248 30 11 31 14 26 57 -7 59 -33 80 -101 80 -30 0 -61 -6 -74 -16z"/>
<path d="M5476 3045 c-66 -71 -19 -161 71 -136 59 17 73 36 73 103 l0 58 -60
0 c-52 0 -64 -4 -84 -25z"/>
<path d="M7929 3040 c-25 -24 -30 -37 -27 -66 6 -74 91 -95 153 -38 21 19 25
32 25 79 l0 55 -61 0 c-54 0 -64 -3 -90 -30z"/>
<path d="M8852 2987 c-32 -33 -32 -34 -32 -135 l0 -102 -55 0 c-65 0 -72 -15
-26 -61 24 -23 38 -29 74 -29 55 0 89 25 112 82 9 24 28 55 42 69 l25 27 -41
73 c-64 118 -61 115 -99 76z"/>
<path d="M6540 2803 l0 -52 -47 -7 c-27 -5 -76 -8 -110 -8 -56 0 -61 -1 -52
-17 12 -23 56 -53 98 -67 113 -39 214 25 177 111 -8 18 -26 46 -40 62 l-25 30
-1 -52z"/>
</g>
</svg>
